<svg width="26" height="25" viewBox="0 0 26 25" fill="none" xmlns="http://www.w3.org/2000/svg">
<path d="M3.50096 22.0792H19.9104L19.1267 19.7823L21.0014 21.2385L22.7195 22.6323L25.8497 25V2.57812C25.7715 1.18437 24.4457 0 22.8024 0L3.50671 0.003125C1.8645 0.003125 0.53186 1.18958 0.53186 2.58333V19.5C0.53186 20.9698 1.8622 22.0792 3.50096 22.0792V22.0792ZM15.6397 5.91979L15.6017 5.93229L15.6156 5.91979H15.6397ZM6.85787 7.24167C8.96731 5.85208 10.9225 5.91875 10.9225 5.91875L11.0802 6.05937C8.49893 6.61667 7.32856 7.66042 7.32856 7.66042C7.32856 7.66042 7.64158 7.52187 8.18821 7.31042C11.6648 6.07292 15.4613 6.1625 18.9759 7.72917C18.9759 7.72917 17.8032 6.75312 15.3808 6.12812L15.5948 5.9375C15.9297 5.93854 17.702 5.99479 19.5985 7.25C19.5985 7.25 21.7206 10.5312 21.7206 14.5625C21.6504 14.4854 20.4041 16.2979 17.1968 16.3604C17.1968 16.3604 16.6536 15.8042 16.2669 15.3187C18.1427 14.8312 18.8447 13.8562 18.8447 13.8562C18.229 14.2073 17.6675 14.4156 17.2117 14.624C16.5109 14.9031 15.8089 15.0406 15.108 15.1812C11.7891 15.6687 9.92594 14.8531 8.1652 14.2062L7.56332 13.9292C7.56332 13.9292 8.26417 14.9042 10.0652 15.3917C9.5922 15.8802 9.12382 16.4354 9.12382 16.4354C5.91766 16.3667 4.74844 14.5542 4.74844 14.5542C4.74844 10.5167 6.85787 7.24167 6.85787 7.24167V7.24167Z" fill="white"/>
</svg>
