<svg width="29" height="21" viewBox="0 0 29 21" fill="none" xmlns="http://www.w3.org/2000/svg">
<path d="M28.5702 2.74844C27.5431 3.15625 26.4487 3.42656 25.3077 3.55781C26.4815 2.92344 27.3774 1.92656 27.7986 0.725C26.7042 1.31562 25.4958 1.73281 24.2081 1.96563C23.1689 0.964063 21.6878 0.34375 20.0721 0.34375C16.9372 0.34375 14.4135 2.64688 14.4135 5.47031C14.4135 5.87656 14.4515 6.26719 14.5447 6.63906C9.83731 6.43125 5.67195 4.38906 2.87375 1.27813C2.38523 2.04531 2.09868 2.92344 2.09868 3.86875C2.09868 5.64375 3.10852 7.21719 4.61378 8.12812C3.70406 8.1125 2.81161 7.87344 2.05552 7.49688C2.05552 7.5125 2.05552 7.53281 2.05552 7.55312C2.05552 10.0437 4.01823 12.1125 6.59202 12.5891C6.13112 12.7031 5.6288 12.7578 5.10748 12.7578C4.74497 12.7578 4.37901 12.7391 4.0355 12.6703C4.76914 14.7 6.85096 16.1922 9.32635 16.2406C7.39989 17.6047 4.95384 18.4266 2.30583 18.4266C1.84147 18.4266 1.39611 18.4078 0.950745 18.3563C3.45894 19.8203 6.43149 20.6562 9.63707 20.6562C20.0565 20.6562 25.753 12.8438 25.753 6.07187C25.753 5.84531 25.7444 5.62656 25.7323 5.40938C26.8561 4.6875 27.8003 3.78594 28.5702 2.74844Z" fill="white"/>
</svg>
